<mxfile host="app.diagrams.net" modified="2021-06-08T09:27:57.331Z" agent="5.0 (Windows NT 10.0; Win64; x64) AppleWebKit/537.36 (KHTML, like Gecko) Chrome/91.0.4472.77 Safari/537.36" etag="rpieCBKLhrShUB8IOC05" version="14.7.6" type="github">
  <diagram id="PKOhdgsL2r-q9qzIlgq7" name="Page-1">
    <mxGraphModel dx="1422" dy="794" grid="1" gridSize="10" guides="1" tooltips="1" connect="1" arrows="1" fold="1" page="1" pageScale="1" pageWidth="827" pageHeight="1169" math="0" shadow="0">
      <root>
        <mxCell id="0" />
        <mxCell id="1" parent="0" />
        <mxCell id="0fgv5ruVTamT_hMms5Yq-1" value="学期学年常量数据（学期/学年）" style="rounded=1;whiteSpace=wrap;html=1;" vertex="1" parent="1">
          <mxGeometry x="10" y="150" width="120" height="60" as="geometry" />
        </mxCell>
        <mxCell id="0fgv5ruVTamT_hMms5Yq-2" value="课程信息（table_timetable）" style="rounded=1;whiteSpace=wrap;html=1;" vertex="1" parent="1">
          <mxGeometry x="200" y="60" width="120" height="60" as="geometry" />
        </mxCell>
        <mxCell id="0fgv5ruVTamT_hMms5Yq-4" value="聚合老师信息" style="rounded=1;whiteSpace=wrap;html=1;" vertex="1" parent="1">
          <mxGeometry x="382" width="120" height="60" as="geometry" />
        </mxCell>
        <mxCell id="0fgv5ruVTamT_hMms5Yq-5" value="聚合学生信息" style="rounded=1;whiteSpace=wrap;html=1;" vertex="1" parent="1">
          <mxGeometry x="382" y="90" width="120" height="60" as="geometry" />
        </mxCell>
        <mxCell id="0fgv5ruVTamT_hMms5Yq-6" value="聚合学院信息" style="rounded=1;whiteSpace=wrap;html=1;" vertex="1" parent="1">
          <mxGeometry x="380" y="450" width="120" height="60" as="geometry" />
        </mxCell>
        <mxCell id="0fgv5ruVTamT_hMms5Yq-7" value="聚合课程—+课表信息" style="rounded=1;whiteSpace=wrap;html=1;" vertex="1" parent="1">
          <mxGeometry x="380" y="260" width="120" height="60" as="geometry" />
        </mxCell>
        <mxCell id="0fgv5ruVTamT_hMms5Yq-8" value="课表信息（table_student2class）" style="rounded=1;whiteSpace=wrap;html=1;" vertex="1" parent="1">
          <mxGeometry x="200" y="150" width="120" height="60" as="geometry" />
        </mxCell>
        <mxCell id="0fgv5ruVTamT_hMms5Yq-9" value="课表信息（table_student2class）" style="rounded=1;whiteSpace=wrap;html=1;" vertex="1" parent="1">
          <mxGeometry x="200" y="240" width="120" height="60" as="geometry" />
        </mxCell>
        <mxCell id="0fgv5ruVTamT_hMms5Yq-10" value="学生信息&lt;br&gt;（table_student）" style="rounded=1;whiteSpace=wrap;html=1;" vertex="1" parent="1">
          <mxGeometry x="202" y="390" width="120" height="60" as="geometry" />
        </mxCell>
        <mxCell id="0fgv5ruVTamT_hMms5Yq-11" value="教师信息&lt;br&gt;（table_teacher）" style="rounded=1;whiteSpace=wrap;html=1;" vertex="1" parent="1">
          <mxGeometry x="202" y="490" width="120" height="60" as="geometry" />
        </mxCell>
        <mxCell id="0fgv5ruVTamT_hMms5Yq-12" value="学期学年常量数据&lt;br&gt;（学期/学年）" style="rounded=1;whiteSpace=wrap;html=1;" vertex="1" parent="1">
          <mxGeometry x="15" y="450" width="110" height="60" as="geometry" />
        </mxCell>
        <mxCell id="0fgv5ruVTamT_hMms5Yq-13" value="课程信息" style="rounded=1;whiteSpace=wrap;html=1;" vertex="1" parent="1">
          <mxGeometry x="532" y="200" width="120" height="60" as="geometry" />
        </mxCell>
        <mxCell id="0fgv5ruVTamT_hMms5Yq-14" value="课表信息" style="rounded=1;whiteSpace=wrap;html=1;" vertex="1" parent="1">
          <mxGeometry x="532" y="270" width="120" height="60" as="geometry" />
        </mxCell>
        <mxCell id="0fgv5ruVTamT_hMms5Yq-15" value="上课地址" style="rounded=1;whiteSpace=wrap;html=1;" vertex="1" parent="1">
          <mxGeometry x="532" y="340" width="120" height="60" as="geometry" />
        </mxCell>
        <mxCell id="0fgv5ruVTamT_hMms5Yq-16" value="插入/更新" style="rounded=1;whiteSpace=wrap;html=1;" vertex="1" parent="1">
          <mxGeometry x="680" y="20" width="110" height="540" as="geometry" />
        </mxCell>
        <mxCell id="0fgv5ruVTamT_hMms5Yq-18" value="聚合教学信息" style="rounded=1;whiteSpace=wrap;html=1;" vertex="1" parent="1">
          <mxGeometry x="380" y="170" width="120" height="60" as="geometry" />
        </mxCell>
      </root>
    </mxGraphModel>
  </diagram>
</mxfile>
